<svg width="35" height="35" viewBox="0 0 35 35" fill="none" xmlns="http://www.w3.org/2000/svg">
<rect width="35" height="35" rx="7" fill="#EEEAE6"/>
<path d="M21 10.5V24.5C21 25.1922 21.2053 25.8689 21.5899 26.4445C21.9744 27.0201 22.5211 27.4687 23.1606 27.7336C23.8002 27.9985 24.5039 28.0678 25.1828 27.9328C25.8618 27.7977 26.4854 27.4644 26.9749 26.9749C27.4644 26.4854 27.7977 25.8618 27.9328 25.1828C28.0678 24.5039 27.9985 23.8002 27.7336 23.1606C27.4687 22.5211 27.0201 21.9744 26.4445 21.5899C25.8689 21.2053 25.1922 21 24.5 21H10.5C9.80777 21 9.13108 21.2053 8.55551 21.5899C7.97993 21.9744 7.53133 22.5211 7.26642 23.1606C7.00152 23.8002 6.9322 24.5039 7.06725 25.1828C7.2023 25.8618 7.53564 26.4854 8.02513 26.9749C8.51461 27.4644 9.13825 27.7977 9.81719 27.9328C10.4961 28.0678 11.1999 27.9985 11.8394 27.7336C12.4789 27.4687 13.0256 27.0201 13.4101 26.4445C13.7947 25.8689 14 25.1922 14 24.5V10.5C14 9.80777 13.7947 9.13108 13.4101 8.55551C13.0256 7.97993 12.4789 7.53133 11.8394 7.26642C11.1999 7.00152 10.4961 6.9322 9.81719 7.06725C9.13825 7.2023 8.51461 7.53564 8.02513 8.02513C7.53564 8.51461 7.2023 9.13825 7.06725 9.81719C6.9322 10.4961 7.00152 11.1999 7.26642 11.8394C7.53133 12.4789 7.97993 13.0256 8.55551 13.4101C9.13108 13.7947 9.80777 14 10.5 14H24.5C25.1922 14 25.8689 13.7947 26.4445 13.4101C27.0201 13.0256 27.4687 12.4789 27.7336 11.8394C27.9985 11.1999 28.0678 10.4961 27.9328 9.81719C27.7977 9.13825 27.4644 8.51461 26.9749 8.02513C26.4854 7.53564 25.8618 7.2023 25.1828 7.06725C24.5039 6.9322 23.8002 7.00152 23.1606 7.26642C22.5211 7.53133 21.9744 7.97993 21.5899 8.55551C21.2053 9.13108 21 9.80777 21 10.5Z" stroke="#6B6762" stroke-width="2.33333" stroke-linecap="round" stroke-linejoin="round"/>
<rect x="0.145833" y="0.145833" width="34.7083" height="34.7083" rx="6.85417" stroke="black" stroke-opacity="0.44" stroke-width="0.291667"/>
</svg>
